<svg width="247" height="65" viewBox="0 0 247 65" fill="none" xmlns="http://www.w3.org/2000/svg">
<g clip-path="url(#clip0)">
<path d="M102.62 10.61V19.7H101.54V13.02C101.535 12.9267 101.535 12.8333 101.54 12.74C101.54 12.64 101.54 12.53 101.54 12.43L98.42 18.11C98.3848 18.1966 98.3235 18.27 98.2447 18.3202C98.1658 18.3704 98.0733 18.3948 97.98 18.39H97.8C97.7069 18.3933 97.615 18.3683 97.5365 18.3183C97.4579 18.2684 97.3964 18.1957 97.36 18.11L94.18 12.4C94.18 12.63 94.18 12.83 94.18 13.02V19.7H93.1V10.61H94C94.0861 10.5963 94.1739 10.5963 94.26 10.61C94.32 10.61 94.37 10.69 94.43 10.78L97.57 16.37L97.72 16.69C97.72 16.8 97.81 16.91 97.85 17.03C97.85 16.91 97.94 16.8 97.98 16.69C98.0252 16.5795 98.0787 16.4725 98.14 16.37L101.22 10.78C101.251 10.7057 101.308 10.6453 101.38 10.61C101.466 10.5963 101.554 10.5963 101.64 10.61H102.62Z" fill="#545CA2"/>
<path d="M113.33 15.16C113.337 15.7984 113.225 16.4326 113 17.03C112.801 17.5773 112.491 18.0777 112.09 18.5C111.693 18.9177 111.208 19.2422 110.67 19.45C109.495 19.9031 108.194 19.9031 107.02 19.45C106.487 19.238 106.006 18.9141 105.61 18.5C105.209 18.0777 104.899 17.5773 104.7 17.03C104.26 15.8222 104.26 14.4978 104.7 13.29C104.899 12.7427 105.209 12.2423 105.61 11.82C105.998 11.3841 106.48 11.0421 107.02 10.82C108.192 10.353 109.498 10.353 110.67 10.82C111.214 11.0392 111.7 11.3815 112.09 11.82C112.491 12.2423 112.801 12.7427 113 13.29C113.226 13.8872 113.338 14.5215 113.33 15.16ZM112.06 15.16C112.069 14.6513 111.995 14.1445 111.84 13.66C111.701 13.2437 111.48 12.8596 111.19 12.53C110.911 12.2277 110.57 11.9889 110.19 11.83C109.335 11.4964 108.385 11.4964 107.53 11.83C107.151 11.9897 106.81 12.2284 106.53 12.53C106.24 12.8596 106.019 13.2437 105.88 13.66C105.586 14.6384 105.586 15.6815 105.88 16.66C106.021 17.0721 106.242 17.4527 106.53 17.78C106.807 18.0845 107.149 18.3236 107.53 18.48C108.385 18.8136 109.335 18.8136 110.19 18.48C110.572 18.3248 110.914 18.0856 111.19 17.78C111.478 17.4527 111.698 17.0721 111.84 16.66C111.995 16.1754 112.069 15.6687 112.06 15.16Z" fill="#545CA2"/>
<path d="M121.7 19.7H120.47V11.58H117.47C117.41 12.75 117.33 13.76 117.23 14.58C117.15 15.3193 117.03 16.0537 116.87 16.78C116.763 17.2889 116.602 17.785 116.39 18.26C116.244 18.5935 116.045 18.9009 115.8 19.17C115.612 19.3759 115.374 19.5307 115.11 19.62C114.858 19.7019 114.595 19.7424 114.33 19.74C114.155 19.746 113.979 19.7258 113.81 19.68C113.68 19.68 113.62 19.58 113.62 19.5V18.72H114.07C114.241 18.7158 114.41 18.682 114.57 18.62C114.759 18.5295 114.921 18.3917 115.04 18.22C115.229 17.9622 115.374 17.675 115.47 17.37C115.636 16.8987 115.76 16.4134 115.84 15.92C115.95 15.31 116.05 14.57 116.13 13.7C116.21 12.83 116.27 11.79 116.31 10.57H121.7V19.7Z" fill="#545CA2"/>
<path d="M132.41 15.16C132.415 15.7974 132.307 16.4306 132.09 17.03C131.887 17.5753 131.578 18.075 131.18 18.5C130.779 18.9133 130.295 19.2371 129.76 19.45C129.179 19.6842 128.557 19.7998 127.93 19.79C127.307 19.7998 126.688 19.6842 126.11 19.45C125.575 19.2371 125.091 18.9133 124.69 18.5C124.293 18.075 123.983 17.5753 123.78 17.03C123.353 15.8199 123.353 14.5001 123.78 13.29C123.983 12.7446 124.293 12.245 124.69 11.82C125.084 11.3867 125.569 11.0453 126.11 10.82C126.687 10.5824 127.306 10.4634 127.93 10.47C128.557 10.4634 129.18 10.5823 129.76 10.82C130.301 11.0453 130.786 11.3867 131.18 11.82C131.578 12.245 131.887 12.7446 132.09 13.29C132.308 13.8891 132.416 14.5225 132.41 15.16ZM131.15 15.16C131.161 14.6504 131.083 14.1428 130.92 13.66C130.788 13.2426 130.57 12.8576 130.28 12.53C130.002 12.2264 129.661 11.9875 129.28 11.83C128.428 11.497 127.482 11.497 126.63 11.83C126.25 11.9875 125.908 12.2264 125.63 12.53C125.337 12.857 125.115 13.242 124.98 13.66C124.673 14.6364 124.673 15.6835 124.98 16.66C125.118 17.0739 125.339 17.4552 125.63 17.78C125.906 18.0866 126.248 18.326 126.63 18.48C127.482 18.8129 128.428 18.8129 129.28 18.48C129.662 18.326 130.005 18.0866 130.28 17.78C130.568 17.4546 130.786 17.0733 130.92 16.66C131.083 16.1772 131.161 15.6695 131.15 15.16Z" fill="#545CA2"/>
<path d="M142.29 18.73V21.54C142.291 21.5901 142.282 21.6399 142.263 21.6863C142.244 21.7327 142.216 21.7748 142.18 21.81C142.099 21.877 141.996 21.9125 141.89 21.91H141.16V19.7H133.8V21.54C133.804 21.5904 133.796 21.641 133.776 21.6878C133.757 21.7346 133.728 21.7764 133.69 21.81C133.613 21.8772 133.513 21.9128 133.41 21.91H132.68V18.73H133.6C133.752 18.6536 133.888 18.5483 134 18.42C134.153 18.2401 134.278 18.0377 134.37 17.82C134.512 17.4971 134.626 17.1625 134.71 16.82C134.834 16.3357 134.93 15.8449 135 15.35C135.09 14.76 135.16 14.09 135.22 13.35C135.28 12.61 135.34 11.67 135.37 10.65H140.8V18.77L142.29 18.73ZM139.57 18.73V11.58H136.57C136.517 12.62 136.447 13.53 136.36 14.31C136.27 15.09 136.15 15.77 136.03 16.31C135.929 16.8015 135.785 17.2833 135.6 17.75C135.477 18.0877 135.309 18.4072 135.1 18.7L139.57 18.73Z" fill="#545CA2"/>
<path d="M149.35 18.69V19.69H143.8V10.6H149.39V11.6H145.03V14.6H148.56V15.6H145.03V18.69H149.35Z" fill="#545CA2"/>
<path d="M162.96 19.7H162.14C161.979 19.7029 161.819 19.6614 161.68 19.58C161.554 19.498 161.448 19.3886 161.37 19.26L159.06 16.04C158.97 15.881 158.839 15.7496 158.68 15.66C158.506 15.575 158.314 15.5338 158.12 15.54H157.07V19.7H155.91V15.54H154.86C154.666 15.5338 154.474 15.575 154.3 15.66C154.14 15.7513 154.005 15.8821 153.91 16.04L151.61 19.26C151.537 19.392 151.43 19.5024 151.3 19.58C151.161 19.6629 151.002 19.7045 150.84 19.7H150.02L152.72 15.76C152.837 15.5607 152.986 15.3817 153.16 15.23C153.32 15.1004 153.503 15.0021 153.7 14.94C153.53 14.8877 153.373 14.799 153.24 14.68C153.099 14.5525 152.975 14.4081 152.87 14.25L150.23 10.61H151.23C151.357 10.6124 151.48 10.6468 151.59 10.71C151.693 10.7828 151.781 10.8744 151.85 10.98L154.12 14.13C154.222 14.2908 154.368 14.4192 154.54 14.5C154.702 14.5631 154.876 14.5937 155.05 14.59H155.95V10.59H157.11V14.59H158.01C158.184 14.5937 158.358 14.5631 158.52 14.5C158.689 14.4176 158.831 14.2893 158.93 14.13L161.21 10.98C161.279 10.8744 161.367 10.7828 161.47 10.71C161.58 10.648 161.704 10.6137 161.83 10.61H162.83L160.1 14.3C159.998 14.4577 159.877 14.6021 159.74 14.73C159.607 14.8489 159.45 14.9377 159.28 14.99C159.479 15.0576 159.665 15.1591 159.83 15.29C160.004 15.4383 160.152 15.614 160.27 15.81L162.96 19.7Z" fill="#545CA2"/>
<path d="M171.59 10.61V19.7H170.36V15.56H165.46V19.7H164.23V10.61H165.46V14.66H170.36V10.61H171.59Z" fill="#545CA2"/>
<path d="M181.27 19.7H180.27C180.175 19.7045 180.082 19.6723 180.01 19.61C179.939 19.558 179.886 19.4843 179.86 19.4L179.01 17.21H174.93L174.08 19.4C174.057 19.483 174.008 19.5564 173.94 19.61C173.863 19.6705 173.768 19.7023 173.67 19.7H172.8L176.43 10.61H177.67L181.27 19.7ZM178.72 16.3L177.29 12.61C177.29 12.5 177.2 12.37 177.16 12.23C177.12 12.09 177.06 11.93 177.02 11.76C176.946 12.0514 176.856 12.3385 176.75 12.62L175.32 16.3H178.72Z" fill="#545CA2"/>
<path d="M188.57 19.7H187.34V15.79H186.11H185.79C185.688 15.8113 185.59 15.8485 185.5 15.9C185.401 15.959 185.308 16.0258 185.22 16.1C185.117 16.2054 185.024 16.3192 184.94 16.44L182.94 19.24C182.867 19.372 182.76 19.4824 182.63 19.56C182.491 19.6429 182.332 19.6845 182.17 19.68H181.24L183.6 16.36C183.819 16.0202 184.127 15.747 184.49 15.57C184.141 15.5187 183.804 15.4107 183.49 15.25C183.234 15.1188 183.004 14.9427 182.81 14.73C182.633 14.5244 182.497 14.2868 182.41 14.03C182.213 13.4035 182.241 12.7277 182.49 12.12C182.631 11.8057 182.844 11.5285 183.11 11.31C183.407 11.0715 183.746 10.8916 184.11 10.78C184.552 10.6504 185.01 10.5864 185.47 10.59H188.47L188.57 19.7ZM187.34 14.82V11.59H185.55C185.246 11.5844 184.943 11.6214 184.65 11.7C184.423 11.7667 184.212 11.879 184.03 12.03C183.871 12.1665 183.75 12.3423 183.68 12.54C183.605 12.7485 183.568 12.9685 183.57 13.19C183.568 13.4245 183.605 13.6576 183.68 13.88C183.75 14.0776 183.871 14.2535 184.03 14.39C184.212 14.5339 184.418 14.6424 184.64 14.71C184.937 14.7878 185.243 14.8248 185.55 14.82H187.34Z" fill="#545CA2"/>
<path d="M205.46 10.61V19.7H194.13V10.61H195.36V18.73H199.16V10.61H200.39V18.73H204.22V10.61H205.46Z" fill="#545CA2"/>
<path d="M215.02 19.7H213.92C213.809 19.7007 213.7 19.6656 213.61 19.6C213.509 19.5203 213.424 19.4219 213.36 19.31L210.96 15.98C210.873 15.8395 210.753 15.7227 210.61 15.64C210.448 15.5644 210.269 15.5301 210.09 15.54H209V19.7H207.8V10.61H209.03V14.61H209.97C210.137 14.6119 210.303 14.5848 210.46 14.53C210.616 14.4458 210.75 14.3259 210.85 14.18L213.23 10.98C213.291 10.8831 213.369 10.7983 213.46 10.73C213.555 10.6659 213.666 10.6311 213.78 10.63H214.78L212.04 14.37C211.845 14.6513 211.565 14.8619 211.24 14.97C211.448 15.0201 211.643 15.1157 211.81 15.25C211.984 15.4064 212.132 15.5885 212.25 15.79L215.02 19.7Z" fill="#545CA2"/>
<path d="M224.24 15.16C224.245 15.7974 224.137 16.4307 223.92 17.03C223.717 17.5779 223.404 18.0783 223 18.5C222.604 18.914 222.123 19.238 221.59 19.45C220.412 19.9038 219.108 19.9038 217.93 19.45C217.397 19.238 216.916 18.914 216.52 18.5C216.119 18.0777 215.809 17.5773 215.61 17.03C215.17 15.8222 215.17 14.4978 215.61 13.29C215.809 12.7427 216.119 12.2423 216.52 11.82C216.908 11.3841 217.39 11.0421 217.93 10.82C219.106 10.3574 220.414 10.3574 221.59 10.82C222.13 11.0421 222.612 11.3841 223 11.82C223.404 12.2417 223.717 12.7421 223.92 13.29C224.138 13.8891 224.246 14.5225 224.24 15.16ZM222.98 15.16C222.986 14.6507 222.909 14.1439 222.75 13.66C222.615 13.242 222.393 12.857 222.1 12.53C221.823 12.2255 221.481 11.9864 221.1 11.83C220.245 11.4964 219.295 11.4964 218.44 11.83C218.06 11.9889 217.719 12.2277 217.44 12.53C217.147 12.857 216.925 13.242 216.79 13.66C216.483 14.6364 216.483 15.6835 216.79 16.66C216.928 17.0739 217.149 17.4552 217.44 17.78C217.716 18.0856 218.058 18.3248 218.44 18.48C219.295 18.8136 220.245 18.8136 221.1 18.48C221.483 18.3273 221.825 18.0877 222.1 17.78C222.391 17.4552 222.612 17.0739 222.75 16.66C222.909 16.176 222.986 15.6692 222.98 15.16Z" fill="#545CA2"/>
<path d="M232.62 19.7H231.39V11.58H228.39C228.33 12.75 228.25 13.76 228.15 14.58C228.075 15.3199 227.954 16.0546 227.79 16.78C227.683 17.2889 227.522 17.785 227.31 18.26C227.168 18.5955 226.969 18.9035 226.72 19.17C226.532 19.3759 226.294 19.5307 226.03 19.62C225.782 19.7012 225.521 19.7417 225.26 19.74C225.081 19.7466 224.903 19.7263 224.73 19.68C224.61 19.64 224.55 19.58 224.55 19.5V18.72H224.99C225.161 18.7167 225.331 18.6828 225.49 18.62C225.68 18.5273 225.845 18.3901 225.97 18.22C226.151 17.9576 226.296 17.6716 226.4 17.37C226.558 16.8968 226.678 16.412 226.76 15.92C226.87 15.31 226.97 14.57 227.05 13.7C227.13 12.83 227.19 11.79 227.23 10.57H232.63L232.62 19.7Z" fill="#545CA2"/>
<path d="M242.3 19.7H241.35C241.255 19.7056 241.161 19.6732 241.09 19.61C241.019 19.5559 240.963 19.4833 240.93 19.4L240.09 17.21H236.01L235.16 19.4C235.137 19.483 235.088 19.5564 235.02 19.61C234.939 19.6705 234.841 19.7022 234.74 19.7H233.8L237.43 10.61H238.67L242.3 19.7ZM239.74 16.3L238.32 12.61L238.18 12.23C238.18 12.08 238.09 11.93 238.05 11.76C237.976 12.0514 237.886 12.3385 237.78 12.62L236.35 16.3H239.74Z" fill="#545CA2"/>
<path d="M95.85 25.82C96.3571 25.813 96.8624 25.8804 97.35 26.02C97.7353 26.1361 98.0927 26.3301 98.4 26.59C98.6771 26.8329 98.893 27.1378 99.03 27.48C99.1669 27.8512 99.2347 28.2444 99.23 28.64C99.2364 29.0376 99.1615 29.4323 99.01 29.8C98.866 30.1463 98.6435 30.4544 98.36 30.7C98.0514 30.9704 97.6906 31.1746 97.3 31.3C96.8311 31.4475 96.3415 31.5184 95.85 31.51H94.39V34.9H93.17V25.82H95.85ZM95.85 30.53C96.1658 30.5387 96.4807 30.4913 96.78 30.39C97.0314 30.3089 97.2631 30.1761 97.46 30C97.6438 29.8366 97.7846 29.6306 97.87 29.4C97.9642 29.1578 98.0117 28.8999 98.01 28.64C98.0235 28.3878 97.9822 28.1356 97.8889 27.9009C97.7957 27.6661 97.6528 27.4543 97.47 27.28C97.0101 26.9203 96.4322 26.7455 95.85 26.79H94.39V30.53H95.85Z" fill="#545CA2"/>
<path d="M107.53 34.9H106.53C106.433 34.9069 106.337 34.8785 106.26 34.82C106.189 34.7679 106.136 34.6943 106.11 34.61L105.26 32.42H101.19L100.34 34.61C100.309 34.6917 100.257 34.764 100.19 34.82C100.111 34.8742 100.016 34.9022 99.92 34.9H98.97L102.6 25.82H103.85L107.53 34.9ZM104.97 31.53L103.54 27.84L103.41 27.46C103.36 27.31 103.32 27.15 103.28 26.99C103.209 27.2803 103.116 27.5645 103 27.84L101.58 31.53H104.97Z" fill="#545CA2"/>
<path d="M108.19 26.67C108.539 26.3659 108.943 26.1316 109.38 25.98C109.875 25.8088 110.396 25.7242 110.92 25.73C111.347 25.7237 111.772 25.7844 112.18 25.91C112.542 26.0014 112.882 26.1647 113.18 26.39C113.435 26.5846 113.641 26.8359 113.781 27.1241C113.922 27.4123 113.994 27.7294 113.99 28.05C114 28.4783 113.882 28.8998 113.65 29.26C113.416 29.612 113.087 29.8896 112.7 30.06C112.923 30.156 113.134 30.2767 113.33 30.42C113.518 30.5563 113.686 30.7178 113.83 30.9C113.962 31.0764 114.067 31.272 114.14 31.48C114.217 31.6949 114.254 31.9219 114.25 32.15C114.254 32.5313 114.18 32.9092 114.03 33.26C113.884 33.6053 113.666 33.9156 113.39 34.17C113.096 34.4297 112.757 34.6332 112.39 34.77C111.94 34.9246 111.466 34.9991 110.99 34.99C110.391 35.0025 109.796 34.8936 109.24 34.67C108.742 34.4734 108.286 34.1813 107.9 33.81L108.25 33.22C108.289 33.1781 108.332 33.1412 108.38 33.11C108.431 33.0786 108.49 33.0614 108.55 33.06C108.665 33.0752 108.773 33.1239 108.86 33.2C109.01 33.3161 109.167 33.423 109.33 33.52C109.552 33.6482 109.786 33.7521 110.03 33.83C110.354 33.9301 110.691 33.9774 111.03 33.97C111.334 33.975 111.638 33.9345 111.93 33.85C112.176 33.7826 112.404 33.6633 112.6 33.5C112.774 33.3481 112.914 33.1605 113.01 32.95C113.104 32.7113 113.152 32.4567 113.15 32.2C113.15 31.9759 113.102 31.7543 113.01 31.55C112.922 31.3519 112.788 31.1772 112.62 31.04C112.428 30.8922 112.212 30.7804 111.98 30.71C111.708 30.6268 111.425 30.5863 111.14 30.59H109.8V29.59H110.99C111.234 29.5939 111.477 29.5602 111.71 29.49C111.918 29.4378 112.112 29.3424 112.28 29.21C112.437 29.0915 112.564 28.9372 112.65 28.76C112.744 28.5741 112.792 28.3683 112.79 28.16C112.794 27.9622 112.75 27.7664 112.66 27.59C112.581 27.4114 112.457 27.2564 112.3 27.14C112.123 27.0081 111.923 26.9098 111.71 26.85C111.449 26.7786 111.18 26.745 110.91 26.75C110.616 26.7406 110.322 26.7777 110.04 26.86C109.831 26.9206 109.627 26.9975 109.43 27.09C109.27 27.18 109.13 27.26 109.03 27.33C108.953 27.3927 108.859 27.431 108.76 27.44C108.7 27.4402 108.641 27.4229 108.59 27.39C108.538 27.3549 108.497 27.3066 108.47 27.25L108.19 26.67Z" fill="#545CA2"/>
<path d="M118.9 25.82C119.385 25.8125 119.87 25.8697 120.34 25.99C120.703 26.0749 121.043 26.2351 121.34 26.46C121.593 26.6515 121.789 26.907 121.91 27.2C122.042 27.5164 122.107 27.8571 122.1 28.2C122.1 28.4213 122.062 28.6409 121.99 28.85C121.918 29.0556 121.814 29.2481 121.68 29.42C121.53 29.6073 121.351 29.7694 121.15 29.9C120.919 30.0507 120.666 30.1654 120.4 30.24C120.963 30.3168 121.488 30.5686 121.9 30.96C122.073 31.1424 122.207 31.3577 122.294 31.5931C122.382 31.8285 122.421 32.0791 122.41 32.33C122.415 32.692 122.34 33.0506 122.19 33.38C122.053 33.6994 121.84 33.9808 121.57 34.2C121.275 34.4411 120.935 34.6212 120.57 34.73C120.128 34.8559 119.67 34.9165 119.21 34.91H116.01V25.83L118.9 25.82ZM117.23 26.82V29.92H118.85C119.157 29.9235 119.463 29.8865 119.76 29.81C119.988 29.7443 120.202 29.6357 120.39 29.49C120.551 29.3591 120.678 29.1909 120.76 29C120.842 28.8002 120.883 28.5859 120.88 28.37C120.899 28.1494 120.865 27.9274 120.782 27.7222C120.699 27.5171 120.568 27.3347 120.4 27.19C119.952 26.9114 119.427 26.7819 118.9 26.82H117.23ZM119.23 33.96C119.538 33.9669 119.845 33.9264 120.14 33.84C120.368 33.77 120.579 33.6544 120.76 33.5C120.923 33.361 121.047 33.1817 121.12 32.98C121.202 32.7697 121.243 32.5456 121.24 32.32C121.249 32.1088 121.208 31.8986 121.121 31.7059C121.034 31.5132 120.904 31.3435 120.74 31.21C120.299 30.9034 119.766 30.7585 119.23 30.8H117.23V33.96H119.23Z" fill="#545CA2"/>
<path d="M131.56 25.82V34.9H130.33V28.45C130.33 28.27 130.33 28.08 130.33 27.89C130.33 27.7 130.33 27.48 130.39 27.26C130.323 27.4407 130.246 27.6176 130.16 27.79C130.092 27.9415 130.008 28.0856 129.91 28.22L125.65 34.52C125.588 34.6158 125.514 34.7032 125.43 34.78C125.337 34.8571 125.221 34.8995 125.1 34.9H124.19V25.82H125.42V32.3C125.42 32.48 125.42 32.67 125.42 32.87C125.42 33.07 125.42 33.27 125.36 33.5C125.425 33.3153 125.502 33.1349 125.59 32.96C125.661 32.8065 125.744 32.6594 125.84 32.52L130.09 26.23C130.153 26.1289 130.23 26.0379 130.32 25.96C130.408 25.8813 130.522 25.8384 130.64 25.84L131.56 25.82Z" fill="#545CA2"/>
<path d="M140.02 26.86H137.08V34.86H135.85V26.86H132.91V25.86H140.02V26.86Z" fill="#545CA2"/>
<path d="M148.72 25.82V34.9H147.49V28.45C147.49 28.27 147.49 28.08 147.49 27.89C147.49 27.7 147.49 27.48 147.55 27.26C147.47 27.45 147.4 27.63 147.32 27.79C147.252 27.9415 147.168 28.0856 147.07 28.22L142.81 34.52C142.748 34.6183 142.67 34.7061 142.58 34.78C142.492 34.8587 142.378 34.9016 142.26 34.9H141.35V25.82H142.58V32.3C142.58 32.48 142.58 32.67 142.58 32.87C142.58 33.07 142.58 33.27 142.52 33.5C142.585 33.3153 142.662 33.1349 142.75 32.96C142.821 32.8088 142.902 32.6619 142.99 32.52L147.25 26.23C147.313 26.1289 147.39 26.0379 147.48 25.96C147.568 25.8813 147.682 25.8384 147.8 25.84L148.72 25.82Z" fill="#545CA2"/>
<path d="M157.14 34.9H155.92V30.99H154.69C154.584 30.9792 154.476 30.9792 154.37 30.99C154.268 31.0113 154.17 31.0484 154.08 31.1C153.978 31.154 153.884 31.2213 153.8 31.3C153.694 31.4027 153.6 31.5167 153.52 31.64L151.52 34.44C151.442 34.5686 151.336 34.678 151.21 34.76C151.068 34.8329 150.91 34.8706 150.75 34.87H149.82L152.17 31.56C152.388 31.2199 152.696 30.9466 153.06 30.77C152.713 30.7119 152.376 30.6042 152.06 30.45C151.807 30.3187 151.58 30.1425 151.39 29.93C151.213 29.7244 151.077 29.4867 150.99 29.23C150.779 28.6054 150.808 27.9247 151.07 27.32C151.209 27.0041 151.421 26.7263 151.69 26.51C151.983 26.2654 152.323 26.0849 152.69 25.98C153.128 25.8496 153.583 25.7856 154.04 25.79H157.04L157.14 34.9ZM155.92 30.02V26.8H154.12C153.816 26.7957 153.514 26.8327 153.22 26.91C152.996 26.9766 152.788 27.089 152.61 27.24C152.451 27.3765 152.33 27.5523 152.26 27.75C152.177 27.9565 152.136 28.1775 152.14 28.4C152.135 28.6323 152.176 28.8633 152.26 29.08C152.33 29.2752 152.447 29.4503 152.6 29.59C152.78 29.7415 152.992 29.8508 153.22 29.91C153.513 29.992 153.816 30.0291 154.12 30.02H155.92Z" fill="#545CA2"/>
<path d="M171.1 33.94V36.75C171.102 36.7988 171.093 36.8474 171.074 36.8923C171.055 36.9373 171.026 36.9775 170.99 37.01C170.911 37.0823 170.807 37.1217 170.7 37.12H169.97V34.9H162.71V25.82H163.94V33.94H168.47V25.82H169.71V33.94H171.1Z" fill="#545CA2"/>
<path d="M179.95 25.82V34.9H178.72V28.45C178.72 28.27 178.72 28.08 178.72 27.89C178.72 27.7 178.72 27.48 178.78 27.26C178.713 27.4407 178.636 27.6176 178.55 27.79C178.481 27.9391 178.401 28.0828 178.31 28.22L174.05 34.52C173.985 34.616 173.907 34.7034 173.82 34.78C173.732 34.8587 173.618 34.9016 173.5 34.9H172.58V25.82H173.8V32.3C173.8 32.48 173.8 32.67 173.8 32.87C173.8 33.07 173.8 33.27 173.74 33.5C173.805 33.3153 173.882 33.1349 173.97 32.96C174.06 32.79 174.14 32.65 174.22 32.52L178.48 26.23C178.54 26.127 178.618 26.0356 178.71 25.96C178.798 25.8813 178.912 25.8384 179.03 25.84L179.95 25.82Z" fill="#545CA2"/>
<path d="M186.65 26.48C187.195 26.4814 187.735 26.5866 188.24 26.79C188.695 26.9755 189.112 27.2433 189.47 27.58C189.804 27.9132 190.072 28.3068 190.26 28.74C190.445 29.1801 190.54 29.6526 190.54 30.13C190.54 30.6138 190.445 31.0929 190.26 31.54C190.07 31.9718 189.802 32.365 189.47 32.7C189.112 33.0366 188.695 33.3044 188.24 33.49C187.735 33.6968 187.196 33.8054 186.65 33.81V34.9H185.49V33.81C184.945 33.8054 184.405 33.6968 183.9 33.49C183.444 33.307 183.026 33.0389 182.67 32.7C182.335 32.3676 182.067 31.9737 181.88 31.54C181.69 31.0943 181.595 30.6143 181.6 30.13C181.595 29.6522 181.691 29.1787 181.88 28.74C182.067 28.3043 182.339 27.91 182.68 27.58C183.036 27.2411 183.454 26.973 183.91 26.79C184.412 26.5867 184.948 26.4814 185.49 26.48V25.41H186.65V26.48ZM185.49 27.43C185.113 27.4335 184.74 27.5081 184.39 27.65C184.077 27.7903 183.795 27.9907 183.56 28.24C183.321 28.4814 183.137 28.7713 183.02 29.09C182.896 29.4088 182.831 29.7478 182.83 30.09C182.826 30.4489 182.891 30.8051 183.02 31.14C183.137 31.4587 183.321 31.7486 183.56 31.99C183.795 32.2392 184.077 32.4397 184.39 32.58C184.74 32.7218 185.113 32.7965 185.49 32.8V27.43ZM186.65 32.84C187.027 32.8365 187.4 32.7618 187.75 32.62C188.064 32.4774 188.349 32.2773 188.59 32.03C188.822 31.7833 189.005 31.4949 189.13 31.18C189.255 30.8439 189.319 30.4884 189.32 30.13C189.314 29.7883 189.25 29.4501 189.13 29.13C189.005 28.8151 188.822 28.5267 188.59 28.28C188.349 28.0358 188.064 27.839 187.75 27.7C187.401 27.5547 187.028 27.4767 186.65 27.47V32.84Z" fill="#545CA2"/>
<path d="M194.87 25.82C195.377 25.813 195.883 25.8804 196.37 26.02C196.755 26.1361 197.113 26.3301 197.42 26.59C197.697 26.8306 197.911 27.1364 198.04 27.48C198.186 27.849 198.257 28.2432 198.25 28.64C198.256 29.0376 198.182 29.4323 198.03 29.8C197.882 30.1442 197.66 30.4516 197.38 30.7C197.07 30.9677 196.709 31.1716 196.32 31.3C195.851 31.4475 195.362 31.5184 194.87 31.51H193.41V34.9H192.19V25.82H194.87ZM194.87 30.53C195.186 30.5387 195.501 30.4913 195.8 30.39C196.048 30.3088 196.277 30.1759 196.47 30C196.66 29.8402 196.805 29.6333 196.89 29.4C196.984 29.1578 197.032 28.8999 197.03 28.64C197.044 28.3878 197.002 28.1356 196.909 27.9009C196.816 27.6661 196.673 27.4543 196.49 27.28C196.028 26.9237 195.452 26.7493 194.87 26.79H193.41V30.53H194.87Z" fill="#545CA2"/>
<path d="M208.19 30.37C208.197 31.0084 208.085 31.6426 207.86 32.24C207.661 32.7873 207.351 33.2877 206.95 33.71C206.551 34.1252 206.066 34.4493 205.53 34.66C204.355 35.1131 203.054 35.1131 201.88 34.66C201.348 34.4458 200.868 34.1222 200.47 33.71C200.069 33.2877 199.759 32.7873 199.56 32.24C199.335 31.6426 199.223 31.0084 199.23 30.37C199.223 29.7283 199.335 29.0909 199.56 28.49C199.764 27.9451 200.073 27.4456 200.47 27.02C200.864 26.5905 201.344 26.2496 201.88 26.02C203.054 25.5669 204.355 25.5669 205.53 26.02C206.07 26.2467 206.554 26.5879 206.95 27.02C207.347 27.4456 207.656 27.9451 207.86 28.49C208.085 29.0909 208.197 29.7283 208.19 30.37ZM206.92 30.37C206.928 29.8581 206.854 29.3482 206.7 28.86C206.562 28.446 206.341 28.0648 206.05 27.74C205.771 27.4345 205.43 27.1924 205.05 27.03C204.192 26.7104 203.248 26.7104 202.39 27.03C202.01 27.1935 201.669 27.4354 201.39 27.74C201.102 28.0654 200.884 28.4466 200.75 28.86C200.443 29.8364 200.443 30.8836 200.75 31.86C200.884 32.2734 201.102 32.6546 201.39 32.98C201.67 33.2816 202.011 33.5203 202.39 33.68C203.248 33.9996 204.192 33.9996 205.05 33.68C205.43 33.5211 205.771 33.2823 206.05 32.98C206.341 32.6552 206.562 32.274 206.7 31.86C206.852 31.3783 206.927 30.8752 206.92 30.37Z" fill="#545CA2"/>
<path d="M212.8 25.82C213.285 25.8125 213.77 25.8697 214.24 25.99C214.602 26.0755 214.943 26.2356 215.24 26.46C215.495 26.6513 215.695 26.9065 215.82 27.2C215.944 27.5185 216.005 27.8581 216 28.2C216.012 28.644 215.863 29.0774 215.58 29.42C215.433 29.6097 215.253 29.7721 215.05 29.9C214.82 30.0526 214.567 30.1674 214.3 30.24C214.865 30.3193 215.393 30.5707 215.81 30.96C216.151 31.3326 216.331 31.8252 216.31 32.33C216.314 32.6908 216.242 33.0484 216.1 33.38C215.959 33.6973 215.747 33.9779 215.48 34.2C215.184 34.44 214.845 34.62 214.48 34.73C214.041 34.8566 213.586 34.9173 213.13 34.91H209.92V25.83L212.8 25.82ZM211.13 26.82V29.92H212.8C213.104 29.923 213.406 29.886 213.7 29.81C213.93 29.7486 214.145 29.6396 214.33 29.49C214.494 29.3622 214.622 29.1931 214.7 29C214.785 28.777 214.819 28.5379 214.8 28.3C214.819 28.0794 214.785 27.8574 214.702 27.6522C214.619 27.4471 214.488 27.2647 214.32 27.12C213.875 26.8428 213.353 26.7133 212.83 26.75L211.13 26.82ZM213.13 33.96C213.438 33.9655 213.744 33.9251 214.04 33.84C214.268 33.77 214.479 33.6544 214.66 33.5C214.817 33.3557 214.94 33.178 215.02 32.98C215.094 32.7677 215.131 32.5446 215.13 32.32C215.141 32.1085 215.101 31.8975 215.014 31.7044C214.928 31.5114 214.796 31.3419 214.63 31.21C214.194 30.9018 213.663 30.7567 213.13 30.8H211.13V33.96H213.13Z" fill="#545CA2"/>
<path d="M221.13 29.73C221.613 29.7206 222.095 29.7812 222.56 29.91C222.925 30.0086 223.266 30.1823 223.56 30.42C223.812 30.631 224.01 30.8982 224.14 31.2C224.265 31.5182 224.327 31.858 224.32 32.2C224.326 32.5868 224.254 32.971 224.11 33.33C223.972 33.6607 223.76 33.955 223.49 34.19C223.199 34.4394 222.858 34.6235 222.49 34.73C222.049 34.8644 221.591 34.9285 221.13 34.92H218.13V25.84H219.36V29.75L221.13 29.73ZM221.13 33.93C221.434 33.9359 221.738 33.8954 222.03 33.81C222.257 33.7433 222.468 33.631 222.65 33.48C222.804 33.3351 222.924 33.1574 223 32.96C223.073 32.7477 223.111 32.5246 223.11 32.3C223.112 32.0688 223.075 31.8389 223 31.62C222.923 31.4286 222.804 31.2575 222.65 31.12C222.47 30.9757 222.263 30.8701 222.04 30.81C221.746 30.7366 221.443 30.7029 221.14 30.71H219.37V33.93H221.13ZM227.22 34.93H225.99V25.85H227.22V34.93Z" fill="#545CA2"/>
<path d="M236.46 34.9H235.24C235.202 34.9032 235.164 34.8987 235.128 34.8866C235.092 34.8746 235.058 34.8553 235.03 34.83C234.976 34.7867 234.931 34.7321 234.9 34.67L232.46 30.85C232.435 30.9411 232.398 31.0286 232.35 31.11L229.98 34.67C229.939 34.7278 229.892 34.7814 229.84 34.83C229.813 34.855 229.782 34.8742 229.747 34.8863C229.713 34.8984 229.676 34.903 229.64 34.9H228.5L231.63 30.24L228.63 25.82H229.85C229.92 25.8155 229.99 25.833 230.05 25.87C230.094 25.9026 230.131 25.9434 230.16 25.99L232.53 29.63C232.568 29.5295 232.615 29.4325 232.67 29.34L234.9 26.02C234.932 25.9672 234.973 25.9199 235.02 25.88C235.067 25.8395 235.128 25.8181 235.19 25.82H236.36L233.36 30.18L236.46 34.9Z" fill="#545CA2"/>
<path d="M100.42 50.11H99.32C99.2049 50.1153 99.0916 50.0799 99 50.01C98.9033 49.9323 98.8219 49.8374 98.76 49.73L96.36 46.4C96.2717 46.2546 96.1478 46.1341 96 46.05C95.835 45.9833 95.6577 45.9526 95.48 45.96H94.39V50.11H93.17V41.03H94.39V45.03H95.39C95.5546 45.035 95.7184 45.0043 95.87 44.94C96.0325 44.8616 96.1707 44.7406 96.27 44.59L98.64 41.4C98.7007 41.3032 98.7786 41.2185 98.87 41.15C98.963 41.0829 99.0753 41.0478 99.19 41.05H100.19L97.44 44.78C97.2509 45.0688 96.9685 45.2841 96.64 45.39C96.8506 45.4335 97.0468 45.5299 97.21 45.67C97.3838 45.8222 97.5323 46.0011 97.65 46.2L100.42 50.11Z" fill="#545CA2"/>
<path d="M109.63 45.58C109.635 46.2174 109.527 46.8506 109.31 47.45C109.113 47.9941 108.804 48.4907 108.402 48.9076C108.001 49.3245 107.516 49.6524 106.98 49.87C106.397 50.0994 105.776 50.2149 105.15 50.21C104.527 50.2148 103.909 50.0994 103.33 49.87C102.794 49.6524 102.309 49.3245 101.908 48.9076C101.506 48.4907 101.197 47.9941 101 47.45C100.573 46.2364 100.573 44.9135 101 43.7C101.203 43.1546 101.512 42.655 101.91 42.23C102.309 41.8022 102.793 41.4618 103.33 41.23C103.908 40.9958 104.527 40.8802 105.15 40.89C105.777 40.8802 106.399 40.9958 106.98 41.23C107.517 41.4618 108.001 41.8022 108.4 42.23C108.798 42.655 109.107 43.1546 109.31 43.7C109.528 44.3025 109.636 44.9392 109.63 45.58ZM108.37 45.58C108.38 45.0672 108.303 44.5564 108.14 44.07C108.006 43.6566 107.788 43.2753 107.5 42.95C107.222 42.6433 106.881 42.401 106.5 42.24C105.648 41.907 104.702 41.907 103.85 42.24C103.469 42.401 103.128 42.6433 102.85 42.95C102.559 43.2748 102.338 43.656 102.2 44.07C102.042 44.5576 101.965 45.0675 101.97 45.58C101.964 46.0859 102.042 46.5893 102.2 47.07C102.335 47.485 102.557 47.8668 102.85 48.19C103.125 48.4997 103.467 48.7425 103.85 48.9C104.704 49.2198 105.646 49.2198 106.5 48.9C106.883 48.7425 107.225 48.4997 107.5 48.19C107.79 47.8662 108.008 47.4844 108.14 47.07C108.303 46.5904 108.38 46.0862 108.37 45.58Z" fill="#545CA2"/>
<path d="M120.8 41.03V50.11H119.8V43.44C119.8 43.35 119.8 43.26 119.8 43.15C119.8 43.04 119.8 42.95 119.8 42.84L116.68 48.52C116.644 48.6068 116.583 48.6808 116.504 48.7325C116.426 48.7842 116.334 48.8112 116.24 48.81H116.06C115.966 48.8126 115.873 48.7861 115.794 48.7343C115.716 48.6824 115.655 48.6076 115.62 48.52L112.44 42.82C112.44 43.04 112.44 43.25 112.44 43.44V50.11H111.37V41.03H112.27C112.356 41.0171 112.444 41.0171 112.53 41.03C112.603 41.0716 112.663 41.1343 112.7 41.21L115.83 46.8L115.98 47.12C116.03 47.23 116.08 47.34 116.12 47.45C116.12 47.34 116.21 47.23 116.25 47.11L116.4 46.79L119.48 41.21C119.511 41.1302 119.572 41.0657 119.65 41.03C119.736 41.0171 119.824 41.0171 119.91 41.03H120.8Z" fill="#545CA2"/>
<path d="M130.16 50.11H128.92V42H124.38V50.11H123.15V41.03H130.15L130.16 50.11Z" fill="#545CA2"/>
<path d="M138.08 49.11V50.11H132.48V41.03H138.08V42.03H133.7V45.03H137.24V46.03H133.7V49.13L138.08 49.11Z" fill="#545CA2"/>
<path d="M145.93 42.06H142.99V50.11H141.8V42.06H138.8V41.06H145.9L145.93 42.06Z" fill="#545CA2"/>
<path d="M152.88 49.11V50.11H147.29V41.03H152.88V42.03H148.52V45.03H152.05V46.03H148.52V49.13L152.88 49.11Z" fill="#545CA2"/>
<path d="M161.95 41.03V50.11H160.72V45.98H155.8V50.11H154.6V41.03H155.8V45.03H160.69V41.03H161.95Z" fill="#545CA2"/>
<path d="M172.66 49.15V51.96C172.664 52.0089 172.655 52.058 172.636 52.1032C172.617 52.1484 172.588 52.1885 172.55 52.22C172.474 52.289 172.373 52.3249 172.27 52.32H171.54V50.11H164.27V41.03H165.5V49.15H170.04V41.03H171.28V49.15H172.66Z" fill="#545CA2"/>
<path d="M181.52 41.03V50.11H180.29V43.66C180.29 43.48 180.29 43.29 180.29 43.09C180.29 42.89 180.29 42.69 180.35 42.47C180.27 42.66 180.2 42.84 180.12 43C180.052 43.1515 179.968 43.2956 179.87 43.43L175.61 49.73C175.548 49.8283 175.47 49.9161 175.38 49.99C175.292 50.0687 175.178 50.1116 175.06 50.11H174.15V41.03H175.38V47.49C175.38 47.67 175.38 47.86 175.38 48.06C175.38 48.26 175.38 48.46 175.32 48.69C175.385 48.5053 175.462 48.3249 175.55 48.15C175.622 47.9989 175.702 47.8519 175.79 47.71L180.05 41.42C180.113 41.3189 180.19 41.2279 180.28 41.15C180.368 41.0713 180.482 41.0284 180.6 41.03H181.52Z" fill="#545CA2"/>
<path d="M191.19 41.03V50.11H189.96V43.66C189.96 43.48 189.96 43.29 189.96 43.09C189.96 42.89 189.96 42.69 190.02 42.47C189.953 42.6508 189.876 42.8277 189.79 43C189.721 43.1491 189.641 43.2928 189.55 43.43L185.29 49.73C185.225 49.826 185.147 49.9134 185.06 49.99C184.972 50.0687 184.858 50.1116 184.74 50.11H183.8V41.03H185.03V47.49C185.03 47.67 185.03 47.86 185.03 48.06C185.03 48.26 185.03 48.46 184.97 48.69C185.038 48.505 185.119 48.3247 185.21 48.15C185.282 47.9989 185.362 47.8519 185.45 47.71L189.71 41.42C189.77 41.317 189.848 41.2256 189.94 41.15C190.028 41.0713 190.142 41.0284 190.26 41.03H191.19ZM187.54 39.86C187.689 39.8641 187.838 39.8438 187.98 39.8C188.09 39.7645 188.189 39.7027 188.27 39.62C188.343 39.5208 188.398 39.4089 188.43 39.29C188.465 39.1222 188.481 38.9513 188.48 38.78H189.14C189.176 38.7776 189.213 38.7858 189.245 38.8035C189.277 38.8212 189.303 38.8478 189.32 38.88C189.364 38.9524 189.388 39.0352 189.39 39.12C189.403 39.3149 189.364 39.5098 189.278 39.6852C189.192 39.8606 189.062 40.0105 188.9 40.12C188.493 40.3732 188.019 40.4953 187.54 40.47C187.065 40.4972 186.592 40.3748 186.19 40.12C186.026 40.0128 185.894 39.8633 185.808 39.6873C185.721 39.5113 185.684 39.3153 185.7 39.12C185.699 39.0361 185.719 38.9534 185.76 38.88C185.777 38.8478 185.803 38.8212 185.835 38.8035C185.867 38.7858 185.904 38.7776 185.94 38.78H186.6C186.599 38.9513 186.616 39.1222 186.65 39.29C186.682 39.4111 186.74 39.5237 186.82 39.62C186.897 39.7023 186.993 39.7641 187.1 39.8C187.243 39.843 187.391 39.8632 187.54 39.86Z" fill="#545CA2"/>
<path d="M96.09 59.88C96.1179 59.4836 96.2126 59.0948 96.37 58.73C96.5105 58.3943 96.7142 58.0888 96.97 57.83C97.2184 57.5734 97.5183 57.3724 97.85 57.24C98.5944 56.9408 99.4256 56.9408 100.17 57.24C100.516 57.3945 100.826 57.6193 101.08 57.9C101.336 58.1926 101.533 58.5322 101.66 58.9C101.803 59.3183 101.874 59.7579 101.87 60.2C101.875 60.6389 101.804 61.0754 101.66 61.49C101.533 61.8578 101.336 62.1974 101.08 62.49C100.826 62.7707 100.516 62.9955 100.17 63.15C99.4256 63.4492 98.5944 63.4492 97.85 63.15C97.5208 63.0175 97.2215 62.8203 96.97 62.57C96.7142 62.3112 96.5105 62.0057 96.37 61.67C96.2126 61.3051 96.1179 60.9164 96.09 60.52H94.8V63.29H93.86V57.1H94.8V59.88H96.09ZM98.97 62.68C99.2491 62.6829 99.5256 62.6249 99.78 62.51C100.018 62.3957 100.227 62.228 100.39 62.02C100.573 61.8096 100.712 61.5648 100.8 61.3C100.894 60.9751 100.942 60.6383 100.94 60.3C100.941 59.9617 100.894 59.6251 100.8 59.3C100.721 59.0234 100.589 58.7651 100.41 58.54C100.25 58.3293 100.04 58.161 99.8 58.05C99.5449 57.937 99.269 57.8786 98.99 57.8786C98.711 57.8786 98.4351 57.937 98.18 58.05C97.9413 58.1637 97.7324 58.3314 97.57 58.54C97.3911 58.7651 97.2586 59.0234 97.18 59.3C97.09 59.6256 97.0462 59.9622 97.05 60.3C97.0452 60.6378 97.089 60.9746 97.18 61.3C97.2566 61.5774 97.3893 61.8361 97.57 62.06C97.7352 62.2659 97.9434 62.4331 98.18 62.55C98.4313 62.6484 98.7005 62.6927 98.97 62.68Z" fill="#201600"/>
<path d="M111.1 63.39H110.49C110.364 63.3934 110.24 63.3623 110.13 63.3C110.037 63.2379 109.958 63.156 109.9 63.06L108.38 60.89C108.314 60.7787 108.221 60.6859 108.11 60.62C107.992 60.5633 107.861 60.5358 107.73 60.54H107.02V63.39H106.14V60.54H105.43C105.299 60.5373 105.169 60.5647 105.05 60.62C104.939 60.6859 104.846 60.7787 104.78 60.89L103.26 63.06C103.205 63.1583 103.126 63.2409 103.03 63.3C102.924 63.361 102.803 63.3921 102.68 63.39H102.06L103.87 60.68C103.949 60.5351 104.054 60.4062 104.18 60.3C104.296 60.2068 104.428 60.1356 104.57 60.09C104.451 60.0511 104.341 59.9862 104.25 59.9C104.151 59.8074 104.064 59.7033 103.99 59.59L102.21 57.1H102.94C103.035 57.0972 103.128 57.1215 103.21 57.17C103.291 57.2209 103.359 57.2892 103.41 57.37L104.91 59.51C104.982 59.6146 105.078 59.7003 105.19 59.76C105.298 59.8017 105.414 59.8221 105.53 59.82H106.14V57.1H107.02V59.82H107.63C107.746 59.8221 107.862 59.8017 107.97 59.76C108.084 59.7033 108.181 59.6169 108.25 59.51L109.75 57.37C109.801 57.2892 109.869 57.2209 109.95 57.17C110.032 57.1234 110.125 57.0993 110.22 57.1H110.95L109.17 59.59C109.099 59.7056 109.012 59.8101 108.91 59.9C108.819 59.9862 108.709 60.0511 108.59 60.09C108.732 60.1356 108.864 60.2068 108.98 60.3C109.106 60.4062 109.211 60.5351 109.29 60.68L111.1 63.39Z" fill="#201600"/>
<path d="M117.09 57.1V63.39H116.16V60.56H112.88V63.39H111.94V57.1H112.88V59.88H116.16V57.1H117.09Z" fill="#201600"/>
<path d="M124.51 60.3C124.517 60.7399 124.442 61.1772 124.29 61.59C124.145 61.9626 123.928 62.3026 123.65 62.59C123.367 62.8779 123.026 63.1028 122.65 63.25C121.834 63.57 120.926 63.57 120.11 63.25C119.734 63.1028 119.393 62.8779 119.11 62.59C118.835 62.3002 118.618 61.9609 118.47 61.59C118.314 61.1779 118.236 60.7405 118.24 60.3C118.237 59.8563 118.315 59.4158 118.47 59C118.618 58.6291 118.835 58.2897 119.11 58C119.393 57.7121 119.734 57.4872 120.11 57.34C120.926 57.02 121.834 57.02 122.65 57.34C123.026 57.4872 123.367 57.7121 123.65 58C123.928 58.2874 124.145 58.6274 124.29 59C124.441 59.4164 124.516 59.8569 124.51 60.3ZM123.56 60.3C123.564 59.9607 123.513 59.6231 123.41 59.3C123.314 59.0204 123.165 58.7623 122.97 58.54C122.781 58.3319 122.549 58.1681 122.29 58.06C121.709 57.8466 121.071 57.8466 120.49 58.06C120.231 58.1681 119.999 58.3319 119.81 58.54C119.612 58.7596 119.462 59.0186 119.37 59.3C119.266 59.6231 119.216 59.9607 119.22 60.3C119.217 60.6392 119.267 60.9767 119.37 61.3C119.462 61.5783 119.612 61.834 119.81 62.05C119.999 62.258 120.231 62.4219 120.49 62.53C121.071 62.7434 121.709 62.7434 122.29 62.53C122.549 62.4219 122.781 62.258 122.97 62.05C123.165 61.8314 123.314 61.5765 123.41 61.3C123.513 60.9767 123.563 60.6392 123.56 60.3Z" fill="#201600"/>
<path d="M129.5 57.83H126.62V63.39H125.68V57.1H129.5V57.83Z" fill="#201600"/>
<path d="M135.97 60.3C135.977 60.7399 135.902 61.1772 135.75 61.59C135.605 61.9626 135.388 62.3026 135.11 62.59C134.826 62.8768 134.485 63.1015 134.11 63.25C133.703 63.4137 133.268 63.4953 132.83 63.49C132.395 63.4953 131.963 63.4137 131.56 63.25C131.184 63.1028 130.843 62.8779 130.56 62.59C130.289 62.2977 130.072 61.959 129.92 61.59C129.768 61.1772 129.693 60.7399 129.7 60.3C129.694 59.8569 129.769 59.4164 129.92 59C130.072 58.631 130.289 58.2923 130.56 58C130.843 57.7121 131.184 57.4872 131.56 57.34C131.963 57.1763 132.395 57.0947 132.83 57.1C133.268 57.0947 133.703 57.1763 134.11 57.34C134.485 57.4885 134.826 57.7132 135.11 58C135.388 58.2874 135.605 58.6274 135.75 59C135.901 59.4164 135.976 59.8569 135.97 60.3ZM135.02 60.3C135.024 59.9607 134.974 59.6231 134.87 59.3C134.774 59.0204 134.625 58.7623 134.43 58.54C134.241 58.3319 134.009 58.1681 133.75 58.06C133.169 57.8466 132.531 57.8466 131.95 58.06C131.691 58.1681 131.459 58.3319 131.27 58.54C131.072 58.7596 130.922 59.0186 130.83 59.3C130.726 59.6231 130.676 59.9607 130.68 60.3C130.677 60.6392 130.727 60.9767 130.83 61.3C130.922 61.5783 131.072 61.834 131.27 62.05C131.459 62.258 131.691 62.4219 131.95 62.53C132.531 62.7434 133.169 62.7434 133.75 62.53C134.009 62.4219 134.241 62.258 134.43 62.05C134.625 61.8314 134.774 61.5765 134.87 61.3C134.973 60.9767 135.023 60.6392 135.02 60.3Z" fill="#201600"/>
<path d="M142.48 57.56C142.855 57.5583 143.225 57.6332 143.57 57.78C143.887 57.8997 144.177 58.0835 144.42 58.32C144.657 58.5499 144.845 58.825 144.974 59.129C145.103 59.433 145.17 59.7598 145.17 60.09C145.173 60.4336 145.105 60.774 144.97 61.09C144.842 61.3908 144.655 61.6628 144.42 61.89C144.175 62.1262 143.886 62.313 143.57 62.44C143.223 62.5772 142.853 62.6516 142.48 62.66V63.41H141.59V62.66C141.217 62.6516 140.847 62.5772 140.5 62.44C140.184 62.313 139.895 62.1262 139.65 61.89C139.415 61.6628 139.228 61.3908 139.1 61.09C138.965 60.774 138.897 60.4336 138.9 60.09C138.902 59.7615 138.969 59.4366 139.098 59.1344C139.226 58.8322 139.414 58.5587 139.65 58.33C139.898 58.0924 140.19 57.9056 140.51 57.78C140.851 57.6343 141.219 57.5594 141.59 57.56V56.82H142.48V57.56ZM141.59 58.28C141.342 58.2858 141.097 58.3402 140.87 58.44C140.659 58.525 140.47 58.6586 140.32 58.83C140.159 58.9911 140.036 59.1857 139.96 59.4C139.88 59.6211 139.839 59.8547 139.84 60.09C139.838 60.3286 139.879 60.5657 139.96 60.79C140.036 61.0042 140.159 61.1989 140.32 61.36C140.472 61.5314 140.66 61.6679 140.87 61.76C141.099 61.8532 141.343 61.9008 141.59 61.9V58.28ZM142.48 61.9C142.727 61.9018 142.972 61.8542 143.2 61.76C143.411 61.6653 143.602 61.5293 143.76 61.36C143.914 61.1959 144.033 61.0019 144.11 60.79C144.2 60.5678 144.244 60.3297 144.24 60.09C144.242 59.8537 144.198 59.6192 144.11 59.4C144.033 59.1881 143.914 58.9941 143.76 58.83C143.604 58.6605 143.413 58.5274 143.2 58.44C142.973 58.3389 142.728 58.2845 142.48 58.28V61.9Z" fill="#201600"/>
<path d="M150.17 62.64V63.39H146.26V57.1H150.17V57.86H147.17V59.86H149.56V60.59H147.2V62.65L150.17 62.64Z" fill="#201600"/>
<path d="M157.28 62.66V64.66C157.28 64.6969 157.274 64.7336 157.26 64.768C157.246 64.8023 157.226 64.8336 157.2 64.86C157.138 64.9099 157.059 64.9348 156.98 64.93H156.42V63.41H151.42V64.66C151.42 64.6969 151.414 64.7336 151.4 64.768C151.386 64.8023 151.366 64.8336 151.34 64.86C151.281 64.9084 151.206 64.9333 151.13 64.93H150.57V62.68H151.23C151.329 62.6265 151.417 62.5553 151.49 62.47C151.594 62.3436 151.679 62.202 151.74 62.05C151.836 61.8305 151.913 61.6029 151.97 61.37C152.054 61.0403 152.12 60.7065 152.17 60.37C152.23 59.97 152.28 59.51 152.32 58.97C152.36 58.43 152.39 57.83 152.42 57.13H156.22V62.69L157.28 62.66ZM155.28 62.66V57.83H153.28C153.28 58.52 153.2 59.13 153.14 59.65C153.089 60.1107 153.013 60.5681 152.91 61.02C152.844 61.3605 152.751 61.695 152.63 62.02C152.541 62.2519 152.427 62.4733 152.29 62.68L155.28 62.66Z" fill="#201600"/>
<path d="M162.17 62.64V63.39H158.27V57.1H162.17V57.86H159.17V59.86H161.55V60.59H159.2V62.65L162.17 62.64Z" fill="#201600"/>
<path d="M165.22 57.1C165.578 57.0948 165.935 57.142 166.28 57.24C166.551 57.322 166.803 57.4581 167.02 57.64C167.213 57.8069 167.361 58.0202 167.45 58.26C167.552 58.5141 167.603 58.786 167.6 59.06C167.6 59.3411 167.546 59.6195 167.44 59.88C167.342 60.1225 167.188 60.3384 166.99 60.51C166.774 60.6981 166.522 60.8409 166.25 60.93C165.927 61.032 165.589 61.0826 165.25 61.08H164.25V63.39H163.32V57.1H165.22ZM165.22 60.34C165.433 60.3438 165.646 60.3134 165.85 60.25C166.017 60.1961 166.17 60.1075 166.3 59.99C166.419 59.8747 166.511 59.7348 166.57 59.58C166.64 59.4159 166.674 59.2385 166.67 59.06C166.678 58.8929 166.651 58.7259 166.588 58.5706C166.526 58.4152 166.431 58.2751 166.31 58.16C166.001 57.9165 165.612 57.7987 165.22 57.83H164.22V60.3L165.22 60.34Z" fill="#201600"/>
<path d="M173.37 63.39H172.65C172.579 63.3929 172.508 63.3718 172.45 63.33C172.399 63.2894 172.359 63.2382 172.33 63.18L171.78 61.72H169.01L168.45 63.18C168.423 63.239 168.382 63.2905 168.33 63.33C168.272 63.3718 168.202 63.3929 168.13 63.39H167.41L169.92 57.1H170.87L173.37 63.39ZM171.52 61.05L170.59 58.61C170.59 58.53 170.52 58.43 170.49 58.33C170.46 58.23 170.42 58.1 170.39 57.98C170.364 58.0986 170.331 58.2155 170.29 58.33C170.264 58.4291 170.231 58.526 170.19 58.62L169.27 61.05H171.52Z" fill="#201600"/>
<path d="M179.11 63.39H178.18V57.83H176.18C176.18 58.64 176.08 59.33 176.01 59.92C175.953 60.428 175.866 60.9322 175.75 61.43C175.676 61.7742 175.566 62.1095 175.42 62.43C175.313 62.6574 175.172 62.8667 175 63.05C174.868 63.1891 174.703 63.2923 174.52 63.35C174.343 63.4106 174.157 63.441 173.97 63.44C173.63 63.44 173.45 63.37 173.45 63.25V62.66H173.8C173.913 62.6587 174.024 62.6384 174.13 62.6C174.259 62.5408 174.37 62.4475 174.45 62.33C174.582 62.1588 174.684 61.9659 174.75 61.76C174.867 61.4353 174.954 61.1005 175.01 60.76C175.1 60.257 175.163 59.7496 175.2 59.24C175.26 58.64 175.3 57.92 175.33 57.08H179.13L179.11 63.39Z" fill="#201600"/>
<path d="M182.8 59.78C183.138 59.7726 183.475 59.8164 183.8 59.91C184.052 59.9773 184.287 60.0965 184.49 60.26C184.666 60.4082 184.803 60.597 184.89 60.81C184.981 61.0249 185.025 61.2567 185.02 61.49C185.024 61.7576 184.973 62.0231 184.87 62.27C184.779 62.5055 184.631 62.715 184.44 62.88C184.233 63.0493 183.995 63.1782 183.74 63.26C183.432 63.352 183.112 63.3959 182.79 63.39H180.68V57.1H181.62V59.78H182.8ZM182.8 62.65C183.003 62.6586 183.206 62.6315 183.4 62.57C183.552 62.5299 183.693 62.4545 183.81 62.35C183.915 62.2589 183.995 62.1416 184.04 62.01C184.09 61.8722 184.114 61.7264 184.11 61.58C184.114 61.427 184.091 61.2744 184.04 61.13C183.994 61.0013 183.915 60.8873 183.81 60.8C183.693 60.7026 183.557 60.631 183.41 60.59C183.211 60.538 183.006 60.5144 182.8 60.52H181.6V62.65H182.8Z" fill="#201600"/>
<path d="M191.17 57.1V63.39H190.24V60.56H186.95V63.39H186.01V57.1H186.95V59.88H190.24V57.1H191.17Z" fill="#201600"/>
<path d="M198.59 60.3C198.594 60.7405 198.516 61.1779 198.36 61.59C198.215 61.9603 198.002 62.2997 197.73 62.59C197.443 62.8736 197.103 63.0978 196.73 63.25C195.91 63.5697 195 63.5697 194.18 63.25C193.805 63.1015 193.464 62.8768 193.18 62.59C192.902 62.3026 192.685 61.9626 192.54 61.59C192.384 61.1779 192.306 60.7405 192.31 60.3C192.307 59.8563 192.385 59.4158 192.54 59C192.685 58.6274 192.902 58.2874 193.18 58C193.464 57.7133 193.805 57.4885 194.18 57.34C195 57.0203 195.91 57.0203 196.73 57.34C197.103 57.4922 197.443 57.7165 197.73 58C198.002 58.2903 198.215 58.6297 198.36 59C198.515 59.4158 198.593 59.8563 198.59 60.3ZM197.59 60.3C197.594 59.9608 197.544 59.6231 197.44 59.3C197.348 59.0186 197.198 58.7597 197 58.54C196.815 58.3276 196.582 58.163 196.32 58.06C196.033 57.9485 195.728 57.8942 195.42 57.9C195.116 57.8942 194.813 57.9486 194.53 58.06C194.267 58.1656 194.031 58.3297 193.84 58.54C193.645 58.7623 193.496 59.0204 193.4 59.3C193.297 59.6231 193.246 59.9608 193.25 60.3C193.247 60.6392 193.297 60.9767 193.4 61.3C193.496 61.5766 193.645 61.8314 193.84 62.05C194.031 62.2603 194.267 62.4244 194.53 62.53C194.813 62.6415 195.116 62.6958 195.42 62.69C195.728 62.6958 196.033 62.6415 196.32 62.53C196.582 62.427 196.815 62.2624 197 62.05C197.198 61.834 197.348 61.5783 197.44 61.3C197.556 60.9789 197.62 60.6413 197.63 60.3H197.59Z" fill="#201600"/>
<path d="M203.57 57.83H200.7V63.39H199.8V57.1H203.61L203.57 57.83Z" fill="#201600"/>
<path d="M210.05 60.3C210.054 60.7405 209.976 61.1779 209.82 61.59C209.675 61.9603 209.462 62.2997 209.19 62.59C208.903 62.8736 208.563 63.0978 208.19 63.25C207.37 63.5697 206.46 63.5697 205.64 63.25C205.265 63.1015 204.924 62.8768 204.64 62.59C204.362 62.3026 204.145 61.9626 204 61.59C203.855 61.176 203.787 60.7386 203.8 60.3C203.797 59.8563 203.875 59.4158 204.03 59C204.175 58.6274 204.392 58.2874 204.67 58C204.954 57.7133 205.295 57.4885 205.67 57.34C206.49 57.0203 207.4 57.0203 208.22 57.34C208.593 57.4922 208.933 57.7165 209.22 58C209.492 58.2903 209.705 58.6297 209.85 59C209.995 59.4177 210.062 59.8581 210.05 60.3ZM209.05 60.3C209.054 59.9608 209.003 59.6231 208.9 59.3C208.808 59.021 208.662 58.7628 208.47 58.54C208.279 58.3297 208.043 58.1656 207.78 58.06C207.202 57.8464 206.568 57.8464 205.99 58.06C205.727 58.1656 205.491 58.3297 205.3 58.54C205.105 58.7623 204.956 59.0204 204.86 59.3C204.756 59.6231 204.706 59.9608 204.71 60.3C204.707 60.6392 204.757 60.9767 204.86 61.3C204.956 61.5766 205.105 61.8314 205.3 62.05C205.491 62.2603 205.727 62.4244 205.99 62.53C206.568 62.7436 207.202 62.7436 207.78 62.53C208.043 62.4244 208.279 62.2603 208.47 62.05C208.661 61.8309 208.808 61.576 208.9 61.3C209.016 60.9789 209.08 60.6413 209.09 60.3H209.05Z" fill="#201600"/>
<path d="M219.3 60.3C219.304 60.7405 219.226 61.1779 219.07 61.59C218.925 61.9626 218.708 62.3026 218.43 62.59C218.146 62.8768 217.805 63.1015 217.43 63.25C217.023 63.4137 216.588 63.4953 216.15 63.49C215.715 63.4953 215.283 63.4137 214.88 63.25C214.506 63.0995 214.166 62.875 213.88 62.59C213.608 62.2997 213.395 61.9603 213.25 61.59C213.09 61.1792 213.012 60.7409 213.02 60.3C213.012 59.8559 213.09 59.4145 213.25 59C213.395 58.6297 213.608 58.2903 213.88 58C214.166 57.715 214.506 57.4905 214.88 57.34C215.283 57.1763 215.715 57.0947 216.15 57.1C216.588 57.0947 217.023 57.1763 217.43 57.34C217.805 57.4885 218.146 57.7132 218.43 58C218.708 58.2874 218.925 58.6274 219.07 59C219.225 59.4158 219.303 59.8563 219.3 60.3ZM218.3 60.3C218.304 59.9607 218.254 59.6231 218.15 59.3C218.058 59.0186 217.908 58.7596 217.71 58.54C217.523 58.3299 217.291 58.1656 217.03 58.06C216.743 57.9485 216.438 57.8942 216.13 57.9C215.826 57.8934 215.523 57.9478 215.24 58.06C214.977 58.1656 214.741 58.3297 214.55 58.54C214.352 58.7596 214.202 59.0186 214.11 59.3C214.007 59.6231 213.956 59.9607 213.96 60.3C213.957 60.6392 214.007 60.9767 214.11 61.3C214.202 61.5783 214.352 61.834 214.55 62.05C214.741 62.2603 214.977 62.4244 215.24 62.53C215.523 62.6422 215.826 62.6966 216.13 62.69C216.438 62.6958 216.743 62.6415 217.03 62.53C217.291 62.4244 217.523 62.2601 217.71 62.05C217.908 61.834 218.058 61.5783 218.15 61.3C218.266 60.9789 218.33 60.6413 218.34 60.3H218.3Z" fill="#201600"/>
<path d="M225.57 63.39H224.74C224.654 63.3961 224.569 63.3712 224.5 63.32C224.428 63.2573 224.367 63.1829 224.32 63.1L222.74 60.85C222.681 60.7512 222.599 60.6687 222.5 60.61C222.45 60.583 222.396 60.566 222.34 60.56H222.14H221.4V63.41H220.47V57.1H221.4V59.82H222.04C222.153 59.8232 222.265 59.8028 222.37 59.76C222.477 59.706 222.568 59.6228 222.63 59.52L224.21 57.36C224.256 57.2879 224.313 57.2237 224.38 57.17C224.45 57.1216 224.535 57.0971 224.62 57.1H225.41L223.56 59.67C223.487 59.7661 223.403 59.8533 223.31 59.93C223.214 59.997 223.11 60.0508 223 60.09C223.149 60.1248 223.287 60.1971 223.4 60.3C223.529 60.4103 223.637 60.5423 223.72 60.69L225.57 63.39Z" fill="#201600"/>
<path d="M228.31 57.1C228.665 57.0955 229.019 57.1426 229.36 57.24C229.633 57.3176 229.886 57.4541 230.1 57.64C230.297 57.8063 230.448 58.0196 230.54 58.26C230.634 58.5161 230.682 58.7871 230.68 59.06C230.683 59.3404 230.632 59.6188 230.53 59.88C230.425 60.1211 230.268 60.3361 230.07 60.51C229.856 60.7014 229.604 60.8447 229.33 60.93C229.007 61.0332 228.669 61.0838 228.33 61.08H227.33V63.39H226.39V57.1H228.31ZM228.31 60.34C228.52 60.344 228.73 60.3136 228.93 60.25C229.097 60.1961 229.25 60.1075 229.38 59.99C229.506 59.879 229.603 59.738 229.66 59.58C229.722 59.4138 229.753 59.2374 229.75 59.06C229.758 58.8929 229.731 58.7259 229.669 58.5706C229.606 58.4152 229.511 58.2751 229.39 58.16C229.084 57.9181 228.699 57.8003 228.31 57.83H227.31V60.3L228.31 60.34Z" fill="#201600"/>
<path d="M236.48 57.1L233.92 62.56C233.851 62.7162 233.763 62.8638 233.66 63C233.569 63.1034 233.465 63.1942 233.35 63.27C233.243 63.3384 233.125 63.3859 233 63.41C232.866 63.4426 232.728 63.4594 232.59 63.46C232.25 63.46 232.08 63.39 232.08 63.27V62.68H232.39H232.61C232.68 62.6638 232.748 62.6368 232.81 62.6C232.88 62.5547 232.944 62.501 233 62.44C233.067 62.3604 233.124 62.2731 233.17 62.18L233.47 61.57L230.94 57.12H231.8C231.872 57.1171 231.942 57.1382 232 57.18C232.045 57.226 232.085 57.2763 232.12 57.33L233.59 60.04C233.706 60.2521 233.796 60.477 233.86 60.71C233.86 60.6 233.93 60.49 233.98 60.37C234.03 60.25 234.07 60.15 234.12 60.04L235.38 57.33C235.405 57.2722 235.447 57.2234 235.5 57.19C235.527 57.1655 235.559 57.1466 235.593 57.1346C235.627 57.1225 235.664 57.1176 235.7 57.12L236.48 57.1Z" fill="#201600"/>
<path d="M241.04 57.83H238.16V63.39H237.23V57.1H241.04V57.83Z" fill="#201600"/>
<path d="M246.34 63.39H245.62C245.548 63.3946 245.477 63.3733 245.42 63.33C245.367 63.2922 245.325 63.2402 245.3 63.18L244.74 61.72H241.97L241.42 63.18C241.386 63.2347 241.346 63.2851 241.3 63.33C241.242 63.3718 241.172 63.3929 241.1 63.39H240.38L242.88 57.1H243.8L246.34 63.39ZM244.49 61.05L243.55 58.61C243.55 58.53 243.49 58.43 243.46 58.33C243.421 58.2151 243.387 58.0983 243.36 57.98C243.36 58.11 243.29 58.22 243.26 58.33C243.23 58.44 243.19 58.53 243.16 58.62L242.23 61.05H244.49Z" fill="#201600"/>
<path d="M37.99 38.93H31.8C31.7581 38.7962 31.728 38.659 31.71 38.52C31.71 36.61 31.71 34.71 31.71 32.81C31.7204 32.705 31.7404 32.6012 31.77 32.5C33.65 32.5 35.53 32.5 37.41 32.5C37.91 32.5 38.14 32.39 38.13 31.82C38.13 30.11 38.13 28.4 38.13 26.69C38.1231 26.4756 38.1031 26.2619 38.07 26.05H31.79C31.79 24.53 31.74 23.05 31.72 21.5V19.62H32.54C34.19 19.62 35.84 19.62 37.49 19.62C37.95 19.62 38.13 19.48 38.12 19C38.12 17.26 38.12 15.53 38.12 13.8C38.12 13.31 37.95 13.17 37.48 13.17C35.86 13.17 34.23 13.17 32.61 13.17H31.8C31.7652 12.995 31.7418 12.818 31.73 12.64C31.73 10.58 31.73 8.52998 31.73 6.47998C31.7967 5.48317 32.076 4.5122 32.5492 3.63229C33.0223 2.75239 33.6783 1.98395 34.4731 1.37863C35.2679 0.77331 36.183 0.345132 37.157 0.122863C38.131 -0.0994065 39.1413 -0.110616 40.12 0.0899954C41.4841 0.495789 42.7789 1.10605 43.96 1.89999C47.88 4.14999 51.78 6.41999 55.7 8.67999L66.06 14.68L75.22 19.94C77.14 21.07 79.1 22.13 80.98 23.33C82.0741 23.9831 82.9586 24.9354 83.5291 26.0747C84.0996 27.214 84.3324 28.4927 84.2 29.76C84.1486 30.7661 83.8609 31.7459 83.36 32.62C83.2934 32.7184 83.2198 32.8119 83.14 32.9C81.72 30.48 79.14 29.77 76.96 28.41C74.78 27.05 72.43 25.78 70.16 24.47L60.92 19.14C57.47 17.14 54.02 15.14 50.56 13.14C49.7473 12.6612 48.8234 12.4037 47.8803 12.393C46.9371 12.3823 46.0076 12.6188 45.1843 13.079C44.361 13.5392 43.6725 14.2071 43.1876 15.0161C42.7026 15.825 42.4379 16.747 42.42 17.69C42.34 21.03 42.42 24.37 42.42 27.69C42.42 29.69 42.42 31.75 42.42 33.79C42.42 34.41 42.27 34.67 41.6 34.63C40.6 34.57 39.6 34.63 38.6 34.63C38.15 34.63 38.01 34.77 38.01 35.22C38.01 36.44 38.01 37.65 38.01 38.87L37.99 38.93Z" fill="#545CA2"/>
<path d="M42.4 49.22C42.4 50.9 42.4 52.6 42.54 54.27C42.6859 54.9905 42.9824 55.672 43.41 56.27C43.64 56.65 43.61 56.75 43.25 56.98C42.0746 57.7934 40.7254 58.3207 39.31 58.52C38.3939 58.6025 37.4706 58.5036 36.5928 58.2291C35.715 57.9545 34.8999 57.5096 34.1941 56.9199C33.4882 56.3302 32.9056 55.6072 32.4793 54.7921C32.0531 53.9771 31.7917 53.0861 31.71 52.17C31.61 50.01 31.71 47.85 31.71 45.69C31.7241 45.5568 31.7543 45.4259 31.8 45.3H37.95C37.95 45.3 38.01 45.25 38.01 45.22C38.01 43.13 38.01 41.03 38.01 38.94L42.15 39.01H42.46V43.52" fill="#545CA2"/>
<path d="M31.73 32.5H25.13V26.15H31.75V32.59L31.73 32.5Z" fill="#545CA2"/>
<path d="M25.13 26.12H19.69H18.87V19.75H25.18C25.18 20.58 25.18 21.36 25.18 22.15C25.18 23.49 25.18 24.83 25.11 26.15L25.13 26.12Z" fill="#545CA2"/>
<path d="M25.13 32.47V38.88H24.53C22.84 38.88 21.15 38.88 19.46 38.88C18.99 38.88 18.79 38.8 18.8 38.25C18.8 36.5367 18.8 34.8267 18.8 33.12C18.8 32.62 18.92 32.46 19.44 32.47C21.34 32.47 23.24 32.47 25.14 32.47H25.13Z" fill="url(#paint0_linear)"/>
<path d="M8.46998 18.78H12.97C13.97 18.78 13.97 18.78 13.97 19.78C13.97 21.06 13.97 22.34 13.97 23.62C13.97 24.17 13.79 24.31 13.27 24.3C11.88 24.3 10.5 24.3 9.10998 24.3C8.62998 24.3 8.42998 24.2 8.43998 23.66C8.43998 22.25 8.43998 20.84 8.43998 19.43C8.42998 19.23 8.44998 19.04 8.46998 18.78Z" fill="#545CA2"/>
<path d="M31.8 45.3H27.12V40.75C28.53 40.75 29.93 40.75 31.33 40.75C31.45 40.75 31.64 41.1 31.65 41.29C31.65 42.4 31.65 43.51 31.65 44.62C31.6706 44.8431 31.7107 45.0639 31.77 45.28L31.8 45.3Z" fill="#545CA2"/>
<path d="M26.19 14.2H30.63V18.7H26.19V14.2Z" fill="#545CA2"/>
<path d="M16.05 27.02V31.55C14.63 31.55 13.24 31.55 11.85 31.55C11.7681 31.5104 11.697 31.4515 11.643 31.3783C11.589 31.3052 11.5537 31.2199 11.54 31.13C11.54 29.91 11.54 28.69 11.54 27.47C11.54 27.32 11.74 27.05 11.85 27.05C13.23 27.01 14.62 27.02 16.05 27.02Z" fill="url(#paint1_linear)"/>
<path d="M15.17 19.61V16.05H18.74V19.61H15.17Z" fill="url(#paint2_linear)"/>
<path d="M12.8 40.3V36.86H16.27V40.3H12.8Z" fill="#545CA2"/>
<path d="M13.8 10.72V13.35H11.16V10.72H13.8Z" fill="#545CA2"/>
<path d="M18.63 9.15997H20.8V11.4H18.62L18.63 9.15997Z" fill="#545CA2"/>
<path d="M9.61999 33.95C9.61999 35.18 9.76998 35.02 8.51998 35.03C7.26998 35.04 7.34998 35.03 7.35998 33.89C7.36998 32.75 7.17997 32.77 8.47997 32.77C9.77997 32.77 9.59999 32.61 9.61999 33.95Z" fill="#545CA2"/>
<path d="M0.0299612 25.07C0.0299612 24.84 0.0299612 24.69 0.0299612 24.55C0.0899612 22.46 -0.420037 22.9 1.85996 22.87C1.95406 22.8919 2.04105 22.9373 2.11277 23.002C2.18449 23.0667 2.23858 23.1486 2.26997 23.24C2.31997 23.83 2.26997 24.43 2.26997 25.07H0.0299612Z" fill="#545CA2"/>
<path d="M56.6 53.39C56.6 52.66 56.6 51.93 56.6 51.2C56.6 51.05 56.6 50.98 56.4 50.97C55.851 50.9131 55.3427 50.6546 54.9732 50.2445C54.6038 49.8344 54.3996 49.3019 54.4 48.75C54.4 47.95 54.4 47.16 54.4 46.36C54.4068 45.3541 54.6903 44.3695 55.2194 43.514C55.7486 42.6585 56.503 41.9652 57.4 41.51C58.475 40.9165 59.7217 40.7117 60.93 40.93C61.8282 41.0667 62.6787 41.423 63.4061 41.9673C64.1335 42.5115 64.7154 43.2269 65.1 44.05C65.475 44.7833 65.6671 45.5964 65.66 46.42C65.66 47.2 65.66 47.98 65.66 48.76C65.6602 49.3108 65.4557 49.8421 65.086 50.2506C64.7164 50.659 64.2082 50.9154 63.66 50.97C63.48 50.97 63.43 51.04 63.43 51.21C63.43 52.62 63.43 54.03 63.43 55.43C63.4426 55.9419 63.3373 56.4498 63.1223 56.9145C62.9073 57.3792 62.5883 57.7882 62.19 58.11C61.7792 58.4464 61.2949 58.6814 60.7763 58.7957C60.2578 58.9101 59.7196 58.9007 59.2053 58.7682C58.6911 58.6358 58.2153 58.384 57.8165 58.0334C57.4177 57.6827 57.1072 57.2431 56.91 56.75C56.7603 56.3498 56.6792 55.9272 56.67 55.5C56.57 54.8 56.6 54.09 56.6 53.39Z" fill="url(#paint3_linear)"/>
<path d="M74.64 43.56V44.71C74.6546 45.1176 74.5546 45.521 74.3513 45.8746C74.148 46.2281 73.8496 46.5176 73.49 46.71C73.2158 46.8553 72.9178 46.9501 72.61 46.99C72.41 46.99 72.38 47.09 72.38 47.27V51.45C72.4002 52.0212 72.2716 52.5879 72.0069 53.0945C71.7422 53.6011 71.3505 54.0303 70.87 54.34C70.2842 54.7432 69.5796 54.9369 68.87 54.89C68.2834 54.8688 67.7133 54.6907 67.219 54.3741C66.7247 54.0575 66.3245 53.614 66.06 53.09C65.7697 52.5402 65.6381 51.9204 65.68 51.3C65.68 51.19 65.81 51.07 65.89 50.97C66.4503 50.3866 66.7776 49.6182 66.81 48.81C66.81 47.94 66.81 47.06 66.81 46.19C66.7798 45.1344 66.4971 44.1015 65.9855 43.1776C65.474 42.2537 64.7486 41.4659 63.87 40.88C63.8429 40.8664 63.8189 40.8474 63.7995 40.8241C63.7801 40.8008 63.7658 40.7737 63.7573 40.7446C63.7489 40.7155 63.7465 40.685 63.7504 40.6549C63.7543 40.6249 63.7644 40.596 63.78 40.57C64.2311 39.3208 65.1143 38.2744 66.27 37.62C67.4521 36.9443 68.839 36.7199 70.1738 36.9884C71.5087 37.2568 72.701 37.9999 73.53 39.08C74.3042 40.0695 74.717 41.2938 74.7 42.55V43.55L74.64 43.56Z" fill="url(#paint4_linear)"/>
<path d="M47.57 47.05C46.9679 47.0335 46.3952 46.7865 45.97 46.36C45.5619 45.9511 45.3319 45.3976 45.33 44.82C45.33 44.05 45.33 43.28 45.33 42.51C45.3228 41.5145 45.586 40.5357 46.0915 39.6781C46.5969 38.8204 47.3256 38.116 48.2 37.64C49.2041 37.041 50.3807 36.798 51.54 36.95C52.4722 37.0335 53.3678 37.3526 54.1427 37.8774C54.9177 38.4022 55.5464 39.1154 55.97 39.95C56.08 40.16 56.15 40.39 56.25 40.61C56.2672 40.6347 56.2786 40.663 56.2833 40.6927C56.2881 40.7224 56.286 40.7529 56.2774 40.7817C56.2687 40.8105 56.2537 40.8371 56.2334 40.8593C56.213 40.8815 56.1879 40.8988 56.16 40.91C55.4796 41.3604 54.8923 41.9376 54.43 42.61C53.8165 43.4724 53.4218 44.4711 53.28 45.52C53.1799 46.6739 53.1599 47.8333 53.22 48.99C53.2444 49.5253 53.4062 50.0454 53.69 50.5C53.8281 50.7252 53.9963 50.9304 54.19 51.11C54.2421 51.1513 54.2831 51.2049 54.3093 51.266C54.3355 51.3271 54.346 51.3938 54.34 51.46C54.352 51.9915 54.2393 52.5183 54.0108 52.9983C53.7823 53.4784 53.4445 53.8981 53.0244 54.2239C52.6043 54.5496 52.1136 54.7724 51.5919 54.8742C51.0701 54.976 50.5317 54.954 50.02 54.81C49.4915 54.6747 49.0073 54.4045 48.6146 54.0259C48.222 53.6473 47.9344 53.1732 47.78 52.65C47.6562 52.2551 47.5921 51.8439 47.59 51.43C47.59 50.06 47.59 48.69 47.59 47.32C47.58 47.23 47.57 47.14 47.57 47.05Z" fill="url(#paint5_linear)"/>
<path d="M72.38 33.08C72.3522 33.7509 72.1245 34.3983 71.7262 34.9389C71.3279 35.4796 70.7772 35.8889 70.1447 36.1144C69.5121 36.34 68.8267 36.3714 68.1762 36.2046C67.5257 36.0379 66.9398 35.6806 66.4938 35.1786C66.0477 34.6766 65.7618 34.0528 65.6727 33.3872C65.5836 32.7216 65.6954 32.0446 65.9938 31.443C66.2921 30.8414 66.7634 30.3426 67.3471 30.0107C67.9309 29.6787 68.6005 29.5288 69.27 29.58C70.1419 29.6442 70.9544 30.0456 71.535 30.6991C72.1157 31.3526 72.4188 32.2066 72.38 33.08Z" fill="url(#paint6_linear)"/>
<path d="M59.99 40.3C59.3211 40.302 58.6666 40.1054 58.1094 39.7352C57.5523 39.365 57.1175 38.8378 56.8601 38.2204C56.6028 37.603 56.5344 36.923 56.6637 36.2667C56.793 35.6104 57.1141 35.0073 57.5864 34.5335C58.0587 34.0598 58.661 33.7369 59.3169 33.6057C59.9728 33.4745 60.6529 33.5408 61.2711 33.7963C61.8893 34.0519 62.4178 34.4851 62.7897 35.0411C63.1615 35.5972 63.36 36.2511 63.36 36.92C63.3653 37.3645 63.2819 37.8056 63.1145 38.2174C62.9472 38.6293 62.6993 39.0036 62.3855 39.3184C62.0716 39.6332 61.698 39.8821 61.2867 40.0507C60.8754 40.2193 60.4345 40.304 59.99 40.3Z" fill="url(#paint7_linear)"/>
<path d="M50.94 36.3C50.2405 36.3012 49.5582 36.0828 48.9894 35.6755C48.4206 35.2682 47.9941 34.6927 47.77 34.03C47.77 33.95 47.57 33.03 47.57 32.93C47.5747 32.4707 47.6718 32.017 47.8557 31.5961C48.0395 31.1752 48.3063 30.7956 48.64 30.48C48.9805 30.1415 49.3927 29.8839 49.8463 29.7264C50.2998 29.5688 50.783 29.5154 51.26 29.57C51.9103 29.613 52.5327 29.8506 53.0462 30.2518C53.5598 30.653 53.9409 31.1994 54.14 31.82C54.419 32.6007 54.3987 33.4572 54.0828 34.2237C53.7669 34.9903 53.178 35.6125 52.43 35.97C51.964 36.1892 51.455 36.3019 50.94 36.3Z" fill="url(#paint8_linear)"/>
</g>
<defs>
<linearGradient id="paint0_linear" x1="18.8" y1="35.7" x2="25.14" y2="35.7" gradientUnits="userSpaceOnUse">
<stop stop-color="#5E5EA2"/>
<stop offset="0.36" stop-color="#5479AD"/>
<stop offset="0.75" stop-color="#4C90B7"/>
<stop offset="1" stop-color="#4999BB"/>
</linearGradient>
<linearGradient id="paint1_linear" x1="835.606" y1="1920.98" x2="856.036" y2="1920.98" gradientUnits="userSpaceOnUse">
<stop stop-color="#5E5EA2"/>
<stop offset="0.36" stop-color="#5479AD"/>
<stop offset="0.75" stop-color="#4C90B7"/>
<stop offset="1" stop-color="#4999BB"/>
</linearGradient>
<linearGradient id="paint2_linear" x1="680.512" y1="1463.3" x2="693.257" y2="1463.3" gradientUnits="userSpaceOnUse">
<stop stop-color="#5E5EA2"/>
<stop offset="0.36" stop-color="#5479AD"/>
<stop offset="0.75" stop-color="#4C90B7"/>
<stop offset="1" stop-color="#4999BB"/>
</linearGradient>
<linearGradient id="paint3_linear" x1="54.34" y1="49.87" x2="65.61" y2="49.87" gradientUnits="userSpaceOnUse">
<stop stop-color="#4999BB"/>
<stop offset="0.86" stop-color="#5E5EA2"/>
</linearGradient>
<linearGradient id="paint4_linear" x1="2636.25" y1="7868.3" x2="2756.17" y2="7868.3" gradientUnits="userSpaceOnUse">
<stop stop-color="#4999BB"/>
<stop offset="0.86" stop-color="#5E5EA2"/>
</linearGradient>
<linearGradient id="paint5_linear" x1="2417.52" y1="7873.65" x2="2537.71" y2="7873.65" gradientUnits="userSpaceOnUse">
<stop stop-color="#4999BB"/>
<stop offset="0.86" stop-color="#5E5EA2"/>
</linearGradient>
<linearGradient id="paint6_linear" x1="1661.97" y1="2871.56" x2="1707.47" y2="2871.56" gradientUnits="userSpaceOnUse">
<stop stop-color="#4999BB"/>
<stop offset="0.86" stop-color="#5E5EA2"/>
</linearGradient>
<linearGradient id="paint7_linear" x1="1596.65" y1="2910.65" x2="1642.28" y2="2910.65" gradientUnits="userSpaceOnUse">
<stop stop-color="#4999BB"/>
<stop offset="0.86" stop-color="#5E5EA2"/>
</linearGradient>
<linearGradient id="paint8_linear" x1="1527.64" y1="2875.95" x2="1573.44" y2="2875.95" gradientUnits="userSpaceOnUse">
<stop stop-color="#4999BB"/>
<stop offset="0.86" stop-color="#5E5EA2"/>
</linearGradient>
<clipPath id="clip0">
<rect width="246.34" height="64.91" fill="white"/>
</clipPath>
</defs>
</svg>
